<mxfile host="app.diagrams.net" modified="2022-09-06T10:18:25.922Z" agent="5.0 (Windows)" etag="i67n6xRIA-JUY_61gL3r" version="20.2.8" type="github">
  <diagram id="kgpKYQtTHZ0yAKxKKP6v" name="Page-1">
    <mxGraphModel dx="1292" dy="717" grid="1" gridSize="10" guides="1" tooltips="1" connect="1" arrows="1" fold="1" page="1" pageScale="1" pageWidth="850" pageHeight="1100" math="0" shadow="0">
      <root>
        <mxCell id="0" />
        <mxCell id="1" parent="0" />
        <mxCell id="wEA7PhlhjhMIiWQ6Ikd3-5" value=":Object" style="shape=umlLifeline;perimeter=lifelinePerimeter;container=1;collapsible=0;recursiveResize=0;rounded=0;shadow=0;strokeWidth=1;" vertex="1" parent="1">
          <mxGeometry x="530" y="610" width="100" height="300" as="geometry" />
        </mxCell>
        <mxCell id="wEA7PhlhjhMIiWQ6Ikd3-6" value="" style="points=[];perimeter=orthogonalPerimeter;rounded=0;shadow=0;strokeWidth=1;" vertex="1" parent="wEA7PhlhjhMIiWQ6Ikd3-5">
          <mxGeometry x="45" y="70" width="10" height="190" as="geometry" />
        </mxCell>
        <mxCell id="wEA7PhlhjhMIiWQ6Ikd3-7" value="dispatch" style="verticalAlign=bottom;startArrow=oval;endArrow=block;startSize=8;shadow=0;strokeWidth=1;" edge="1" parent="wEA7PhlhjhMIiWQ6Ikd3-5" target="wEA7PhlhjhMIiWQ6Ikd3-6">
          <mxGeometry relative="1" as="geometry">
            <mxPoint x="-15" y="70" as="sourcePoint" />
          </mxGeometry>
        </mxCell>
        <mxCell id="wEA7PhlhjhMIiWQ6Ikd3-8" value="" style="points=[];perimeter=orthogonalPerimeter;rounded=0;shadow=0;strokeWidth=1;" vertex="1" parent="wEA7PhlhjhMIiWQ6Ikd3-5">
          <mxGeometry x="50" y="120" width="10" height="80" as="geometry" />
        </mxCell>
        <mxCell id="wEA7PhlhjhMIiWQ6Ikd3-9" value=":Object" style="shape=umlLifeline;perimeter=lifelinePerimeter;container=1;collapsible=0;recursiveResize=0;rounded=0;shadow=0;strokeWidth=1;" vertex="1" parent="1">
          <mxGeometry x="710" y="610" width="100" height="300" as="geometry" />
        </mxCell>
        <mxCell id="wEA7PhlhjhMIiWQ6Ikd3-10" value="" style="points=[];perimeter=orthogonalPerimeter;rounded=0;shadow=0;strokeWidth=1;" vertex="1" parent="wEA7PhlhjhMIiWQ6Ikd3-9">
          <mxGeometry x="45" y="80" width="10" height="160" as="geometry" />
        </mxCell>
        <mxCell id="wEA7PhlhjhMIiWQ6Ikd3-11" value="return" style="verticalAlign=bottom;endArrow=open;dashed=1;endSize=8;exitX=0;exitY=0.95;shadow=0;strokeWidth=1;" edge="1" parent="1" source="wEA7PhlhjhMIiWQ6Ikd3-10" target="wEA7PhlhjhMIiWQ6Ikd3-6">
          <mxGeometry relative="1" as="geometry">
            <mxPoint x="685" y="766" as="targetPoint" />
          </mxGeometry>
        </mxCell>
        <mxCell id="wEA7PhlhjhMIiWQ6Ikd3-12" value="dispatch" style="verticalAlign=bottom;endArrow=block;entryX=0;entryY=0;shadow=0;strokeWidth=1;" edge="1" parent="1" source="wEA7PhlhjhMIiWQ6Ikd3-6" target="wEA7PhlhjhMIiWQ6Ikd3-10">
          <mxGeometry relative="1" as="geometry">
            <mxPoint x="685" y="690" as="sourcePoint" />
          </mxGeometry>
        </mxCell>
        <mxCell id="wEA7PhlhjhMIiWQ6Ikd3-13" value="callback" style="verticalAlign=bottom;endArrow=block;entryX=1;entryY=0;shadow=0;strokeWidth=1;" edge="1" parent="1" source="wEA7PhlhjhMIiWQ6Ikd3-10" target="wEA7PhlhjhMIiWQ6Ikd3-8">
          <mxGeometry relative="1" as="geometry">
            <mxPoint x="650" y="730" as="sourcePoint" />
          </mxGeometry>
        </mxCell>
        <mxCell id="wEA7PhlhjhMIiWQ6Ikd3-14" value="return" style="verticalAlign=bottom;endArrow=open;dashed=1;endSize=8;exitX=1;exitY=0.95;shadow=0;strokeWidth=1;" edge="1" parent="1" source="wEA7PhlhjhMIiWQ6Ikd3-8" target="wEA7PhlhjhMIiWQ6Ikd3-10">
          <mxGeometry relative="1" as="geometry">
            <mxPoint x="650" y="787" as="targetPoint" />
          </mxGeometry>
        </mxCell>
        <mxCell id="wEA7PhlhjhMIiWQ6Ikd3-15" value="Host" style="shape=umlLifeline;perimeter=lifelinePerimeter;container=1;collapsible=0;recursiveResize=0;rounded=0;shadow=0;strokeWidth=1;" vertex="1" parent="1">
          <mxGeometry x="120" y="440" width="100" height="300" as="geometry" />
        </mxCell>
        <mxCell id="wEA7PhlhjhMIiWQ6Ikd3-16" value="" style="points=[];perimeter=orthogonalPerimeter;rounded=0;shadow=0;strokeWidth=1;" vertex="1" parent="wEA7PhlhjhMIiWQ6Ikd3-15">
          <mxGeometry x="45" y="70" width="10" height="190" as="geometry" />
        </mxCell>
        <mxCell id="wEA7PhlhjhMIiWQ6Ikd3-19" value="Firmware" style="shape=umlLifeline;perimeter=lifelinePerimeter;container=1;collapsible=0;recursiveResize=0;rounded=0;shadow=0;strokeWidth=1;" vertex="1" parent="1">
          <mxGeometry x="310" y="250" width="100" height="370" as="geometry" />
        </mxCell>
        <mxCell id="wEA7PhlhjhMIiWQ6Ikd3-20" value="" style="points=[];perimeter=orthogonalPerimeter;rounded=0;shadow=0;strokeWidth=1;" vertex="1" parent="wEA7PhlhjhMIiWQ6Ikd3-19">
          <mxGeometry x="45" y="70" width="10" height="270" as="geometry" />
        </mxCell>
        <mxCell id="wEA7PhlhjhMIiWQ6Ikd3-29" style="edgeStyle=orthogonalEdgeStyle;rounded=0;orthogonalLoop=1;jettySize=auto;html=1;exitX=0.934;exitY=0.084;exitDx=0;exitDy=0;exitPerimeter=0;" edge="1" parent="wEA7PhlhjhMIiWQ6Ikd3-19">
          <mxGeometry relative="1" as="geometry">
            <mxPoint x="55.82999999999947" y="69.99999999999977" as="sourcePoint" />
            <mxPoint x="55" y="170" as="targetPoint" />
            <Array as="points">
              <mxPoint x="80" y="70" />
              <mxPoint x="80" y="170" />
              <mxPoint x="55" y="170" />
            </Array>
          </mxGeometry>
        </mxCell>
        <mxCell id="wEA7PhlhjhMIiWQ6Ikd3-32" value="platform_main_task&lt;br&gt;wlan_main_part1&lt;br&gt;wlan_threads_create&lt;br&gt;cmnos_threads_create //&lt;font color=&quot;#FF3333&quot;&gt;static CMNOS_THREAD_CREATE_PROPERTIES_T threads[WLAN_NUM_THREADS]&lt;/font&gt;&lt;br&gt;wlan_thread_entry_hif //thread id:WLAN_THREAD_HIF&lt;br&gt;_HTC_PipeReady" style="edgeLabel;html=1;align=center;verticalAlign=middle;resizable=0;points=[];fontColor=#000000;" vertex="1" connectable="0" parent="wEA7PhlhjhMIiWQ6Ikd3-29">
          <mxGeometry x="-0.3354" y="-1" relative="1" as="geometry">
            <mxPoint y="25" as="offset" />
          </mxGeometry>
        </mxCell>
        <mxCell id="wEA7PhlhjhMIiWQ6Ikd3-22" value="dispatch" style="verticalAlign=bottom;endArrow=block;shadow=0;strokeWidth=1;" edge="1" parent="1" source="wEA7PhlhjhMIiWQ6Ikd3-16" target="wEA7PhlhjhMIiWQ6Ikd3-20">
          <mxGeometry relative="1" as="geometry">
            <mxPoint x="275" y="520" as="sourcePoint" />
            <Array as="points">
              <mxPoint x="270" y="590" />
            </Array>
          </mxGeometry>
        </mxCell>
        <mxCell id="wEA7PhlhjhMIiWQ6Ikd3-26" style="edgeStyle=orthogonalEdgeStyle;rounded=0;orthogonalLoop=1;jettySize=auto;html=1;entryX=1.033;entryY=0.053;entryDx=0;entryDy=0;entryPerimeter=0;" edge="1" parent="1" source="wEA7PhlhjhMIiWQ6Ikd3-20" target="wEA7PhlhjhMIiWQ6Ikd3-16">
          <mxGeometry relative="1" as="geometry">
            <Array as="points">
              <mxPoint x="300" y="520" />
              <mxPoint x="300" y="520" />
            </Array>
          </mxGeometry>
        </mxCell>
        <mxCell id="wEA7PhlhjhMIiWQ6Ikd3-27" value="&lt;pre style=&quot;border: 0px; margin: 0px; color: rgb(0, 0, 0); font-style: normal; font-variant-ligatures: normal; font-variant-caps: normal; font-weight: 400; letter-spacing: normal; orphans: 2; text-align: start; text-indent: 0px; text-transform: none; widows: 2; word-spacing: 0px; -webkit-text-stroke-width: 0px; background-color: rgb(255, 255, 255); text-decoration-thickness: initial; text-decoration-style: initial; text-decoration-color: initial;&quot;&gt;&lt;a style=&quot;text-decoration: none; color: rgb(153, 0, 153); font-weight: bold; font-style: italic;&quot; data-definition-place=&quot;def&quot; class=&quot;xer intelliWindow-symbol&quot; href=&quot;https://opengrok.qualcomm.com/source/s?refs=HTC_MSG_READY_ID&amp;amp;project=NHSS.QSDK.12.2.1&quot;&gt;HTC_MSG_READY_ID&lt;/a&gt; &lt;/pre&gt;" style="edgeLabel;html=1;align=center;verticalAlign=middle;resizable=0;points=[];" vertex="1" connectable="0" parent="wEA7PhlhjhMIiWQ6Ikd3-26">
          <mxGeometry x="-0.0553" y="1" relative="1" as="geometry">
            <mxPoint as="offset" />
          </mxGeometry>
        </mxCell>
      </root>
    </mxGraphModel>
  </diagram>
</mxfile>
